<svg width="28" height="28" viewBox="0 0 28 28" fill="none" xmlns="http://www.w3.org/2000/svg">
<path fill-rule="evenodd" clip-rule="evenodd" d="M23.45 17.9375C23.45 18.34 23.2925 18.7425 22.995 19.0575C22.6999 19.3514 22.3003 19.5164 21.8838 19.5164C21.4673 19.5164 21.0677 19.3514 20.7725 19.0575L14 12.285L7.24503 19.0575C6.94986 19.3514 6.5503 19.5164 6.13378 19.5164C5.71726 19.5164 5.3177 19.3514 5.02253 19.0575C4.72865 18.7623 4.56366 18.3628 4.56366 17.9462C4.56366 17.5297 4.72865 17.1302 5.02253 16.835L12.8975 8.95999C13.1927 8.66611 13.5923 8.50112 14.0088 8.50112C14.4253 8.50112 14.8249 8.66611 15.12 8.95999L22.995 16.835C23.2925 17.1325 23.45 17.535 23.45 17.9375" fill="#CCDFF1"/>
</svg>
