<svg width="216" height="68" viewBox="0 0 216 68" fill="none" xmlns="http://www.w3.org/2000/svg">
<path d="M41.194 4.45208H26.6648L18.5002 27.5423H33.0295C44.5964 27.5423 47.1355 22.0438 49.274 15.9972C51.4125 9.95055 52.7666 4.45208 41.194 4.45208ZM38.9427 15.9972C36.7365 22.2416 35.9071 23.2079 32.0308 23.2079H30.039L35.1397 8.78644H37.1315C41.0078 8.78644 41.1489 9.75842 38.9427 15.9972ZM68.6782 4C58.4542 4 53.7653 7.36237 50.7128 15.9972C47.6602 24.632 49.968 27.9943 60.1921 27.9943C70.4161 27.9943 75.105 24.632 78.1575 15.9972C81.2101 7.36237 78.9023 4 68.6782 4ZM67.8262 15.9972C65.6201 22.2416 64.7003 23.9199 61.6365 23.9199C58.5727 23.9199 58.8435 22.2416 61.0497 15.9972C63.2559 9.75842 64.1756 8.07441 67.2394 8.07441C70.3033 8.07441 70.0381 9.75277 67.8262 15.9972ZM97.6182 4C87.3941 4 82.7053 7.36237 79.6527 15.9972C76.6002 24.632 78.9079 27.9943 89.132 27.9943C99.3561 27.9943 104.045 24.632 107.097 15.9972C110.15 7.36237 107.842 4 97.6182 4ZM96.7662 15.9972C94.56 22.2416 93.6403 23.9199 90.5765 23.9199C87.5126 23.9199 87.7778 22.2416 89.9897 15.9972C92.1958 9.75842 93.1155 8.07441 96.1794 8.07441C99.2432 8.07441 98.9724 9.75277 96.7662 15.9972ZM132.635 20.8797C135.62 12.4427 118.473 14.6692 120.086 10.1088C120.453 9.07464 121.773 8.07441 123.929 8.07441C125.864 8.07441 126.378 9.20462 125.898 10.5665L125.706 11.1203H135.073C136.822 6.17 133.876 4.00565 125.153 4.00565C116.43 4.00565 111.657 6.55992 110.015 11.2164C107.12 19.3991 123.635 17.133 122.022 21.6934C121.576 22.9536 120.047 23.9256 118.004 23.9256C116.069 23.9256 114.974 23.2136 115.668 21.2413L115.86 20.6932H106.172L105.89 21.5013C104.197 26.2877 108.22 28 116.509 28C125.334 28 130.903 25.8017 132.641 20.8853L132.635 20.8797ZM147.181 4.45208L129.65 27.5423H140.309L142.758 23.5018H150.725L150.318 27.5423H160.971L159.775 4.45208H147.187H147.181ZM151.142 18.9696H145.545L151.752 9.17071H151.859L151.137 18.9696H151.142ZM188.134 4.45208L183.101 18.6814H182.994L181.566 4.45208H170.372L162.207 27.5423H171.573L176.618 13.279H176.725L178.356 27.5423H189.336L197.5 4.45208H188.134Z" fill="white"/>
<path d="M210.72 44.662C212.274 44.662 213.543 45.1457 214.526 46.113C215.509 47.0644 216.001 48.4519 216.001 50.2755V57.887H214.359V50.4658C214.359 49.0545 214.003 47.9762 213.289 47.2309C212.591 46.4856 211.632 46.113 210.411 46.113C209.158 46.113 208.159 46.5094 207.414 47.3023C206.669 48.0951 206.296 49.2607 206.296 50.7988V57.887H204.631V44.8999H206.296V47.112C206.708 46.3191 207.303 45.7166 208.08 45.3043C208.857 44.8761 209.737 44.662 210.72 44.662Z" fill="white"/>
<path d="M195.055 58.0773C193.834 58.0773 192.732 57.8077 191.749 57.2686C190.782 56.7136 190.013 55.9366 189.442 54.9376C188.887 53.9227 188.609 52.7413 188.609 51.3935C188.609 50.0456 188.895 48.8721 189.466 47.8731C190.037 46.8583 190.814 46.0813 191.797 45.5421C192.78 44.9871 193.882 44.7096 195.103 44.7096C196.324 44.7096 197.426 44.9871 198.409 45.5421C199.408 46.0813 200.185 46.8583 200.74 47.8731C201.311 48.8721 201.597 50.0456 201.597 51.3935C201.597 52.7255 201.311 53.8989 200.74 54.9138C200.169 55.9286 199.384 56.7136 198.385 57.2686C197.386 57.8077 196.276 58.0773 195.055 58.0773ZM195.055 56.6264C195.912 56.6264 196.705 56.4361 197.434 56.0555C198.163 55.6591 198.75 55.0723 199.194 54.2953C199.654 53.5025 199.884 52.5352 199.884 51.3935C199.884 50.2517 199.662 49.2924 199.218 48.5154C198.774 47.7225 198.187 47.1358 197.458 46.7552C196.728 46.3588 195.936 46.1606 195.079 46.1606C194.223 46.1606 193.43 46.3588 192.701 46.7552C191.971 47.1358 191.384 47.7225 190.94 48.5154C190.512 49.2924 190.298 50.2517 190.298 51.3935C190.298 52.5352 190.512 53.5025 190.94 54.2953C191.384 55.0723 191.963 55.6591 192.677 56.0555C193.406 56.4361 194.199 56.6264 195.055 56.6264Z" fill="white"/>
<path d="M184.769 42.45C184.436 42.45 184.15 42.331 183.912 42.0932C183.674 41.8553 183.555 41.5619 183.555 41.2131C183.555 40.8642 183.674 40.5788 183.912 40.3568C184.15 40.1189 184.436 40 184.769 40C185.102 40 185.387 40.1189 185.625 40.3568C185.863 40.5788 185.982 40.8642 185.982 41.2131C185.982 41.5619 185.863 41.8553 185.625 42.0932C185.387 42.331 185.102 42.45 184.769 42.45ZM185.601 44.8999V57.887H183.936V44.8999H185.601Z" fill="white"/>
<path d="M177.622 46.3033V54.3667C177.622 55.1596 177.773 55.7066 178.074 56.0079C178.376 56.3092 178.907 56.4599 179.668 56.4599H181.19V57.887H179.406C178.233 57.887 177.361 57.6174 176.79 57.0783C176.219 56.5233 175.934 55.6194 175.934 54.3667V46.3033H174.126V44.8999H175.934V41.6412H177.622V44.8999H181.19V46.3033H177.622Z" fill="white"/>
<path d="M158.647 51.3697C158.647 50.0377 158.908 48.8721 159.432 47.8731C159.971 46.8583 160.708 46.0813 161.644 45.5421C162.595 44.9871 163.666 44.7096 164.855 44.7096C166.092 44.7096 167.154 44.995 168.042 45.5659C168.946 46.1368 169.596 46.8662 169.993 47.7542V44.8999H171.658V57.887H169.993V55.0089C169.58 55.8969 168.922 56.6343 168.018 57.221C167.13 57.7919 166.068 58.0773 164.831 58.0773C163.658 58.0773 162.595 57.7998 161.644 57.2448C160.708 56.6898 159.971 55.9049 159.432 54.89C158.908 53.8751 158.647 52.7017 158.647 51.3697ZM169.993 51.3935C169.993 50.3469 169.779 49.4272 169.35 48.6343C168.922 47.8414 168.336 47.2309 167.59 46.8028C166.861 46.3746 166.052 46.1606 165.164 46.1606C164.244 46.1606 163.42 46.3667 162.69 46.779C161.961 47.1913 161.382 47.7939 160.954 48.5867C160.542 49.3637 160.336 50.2914 160.336 51.3697C160.336 52.4321 160.542 53.3677 160.954 54.1764C161.382 54.9693 161.961 55.5798 162.69 56.0079C163.42 56.4202 164.244 56.6264 165.164 56.6264C166.052 56.6264 166.861 56.4123 167.59 55.9841C168.336 55.556 168.922 54.9455 169.35 54.1526C169.779 53.3598 169.993 52.44 169.993 51.3935Z" fill="white"/>
<path d="M151.015 56.2696L155.392 44.8999H157.152L151.943 57.887H150.064L144.855 44.8999H146.639L151.015 56.2696Z" fill="white"/>
<path d="M136.825 58.0773C135.604 58.0773 134.502 57.8077 133.519 57.2686C132.552 56.7136 131.783 55.9366 131.212 54.9376C130.657 53.9227 130.379 52.7413 130.379 51.3935C130.379 50.0456 130.665 48.8721 131.236 47.8731C131.807 46.8583 132.583 46.0813 133.567 45.5421C134.55 44.9871 135.652 44.7096 136.873 44.7096C138.094 44.7096 139.196 44.9871 140.179 45.5421C141.178 46.0813 141.955 46.8583 142.51 47.8731C143.081 48.8721 143.366 50.0456 143.366 51.3935C143.366 52.7255 143.081 53.8989 142.51 54.9138C141.939 55.9286 141.154 56.7136 140.155 57.2686C139.156 57.8077 138.046 58.0773 136.825 58.0773ZM136.825 56.6264C137.682 56.6264 138.474 56.4361 139.204 56.0555C139.933 55.6591 140.52 55.0723 140.964 54.2953C141.424 53.5025 141.654 52.5352 141.654 51.3935C141.654 50.2517 141.432 49.2924 140.988 48.5154C140.544 47.7225 139.957 47.1358 139.228 46.7552C138.498 46.3588 137.705 46.1606 136.849 46.1606C135.993 46.1606 135.2 46.3588 134.471 46.7552C133.741 47.1358 133.154 47.7225 132.71 48.5154C132.282 49.2924 132.068 50.2517 132.068 51.3935C132.068 52.5352 132.282 53.5025 132.71 54.2953C133.154 55.0723 133.733 55.6591 134.447 56.0555C135.176 56.4361 135.969 56.6264 136.825 56.6264Z" fill="white"/>
<path d="M122.178 44.662C123.732 44.662 125.001 45.1457 125.984 46.113C126.967 47.0644 127.459 48.4519 127.459 50.2755V57.887H125.818V50.4658C125.818 49.0545 125.461 47.9762 124.747 47.2309C124.049 46.4856 123.09 46.113 121.869 46.113C120.616 46.113 119.617 46.5094 118.872 47.3023C118.127 48.0951 117.754 49.2607 117.754 50.7988V57.887H116.089V44.8999H117.754V47.112C118.166 46.3191 118.761 45.7166 119.538 45.3043C120.315 44.8761 121.195 44.662 122.178 44.662Z" fill="white"/>
<path d="M107.127 44.662C108.681 44.662 109.95 45.1457 110.933 46.113C111.916 47.0644 112.408 48.4519 112.408 50.2755V57.887H110.767V50.4658C110.767 49.0545 110.41 47.9762 109.696 47.2309C108.999 46.4856 108.039 46.113 106.818 46.113C105.565 46.113 104.566 46.5094 103.821 47.3023C103.076 48.0951 102.703 49.2607 102.703 50.7988V57.887H101.038V44.8999H102.703V47.112C103.116 46.3191 103.71 45.7166 104.487 45.3043C105.264 44.8761 106.144 44.662 107.127 44.662Z" fill="white"/>
<path d="M97.268 41.2607V57.887H95.603V41.2607H97.268Z" fill="white"/>
<path d="M86.8188 44.8999L79.1121 64H77.3758L79.8971 57.8157L74.569 44.8999H76.4005L80.8247 55.9841L85.1062 44.8999H86.8188Z" fill="white"/>
<path d="M69.8023 46.3033V54.3667C69.8023 55.1596 69.953 55.7066 70.2543 56.0079C70.5555 56.3092 71.0868 56.4599 71.8479 56.4599H73.3702V57.887H71.5863C70.4128 57.887 69.5407 57.6174 68.9698 57.0783C68.399 56.5233 68.1135 55.6194 68.1135 54.3667V46.3033H66.3058V44.8999H68.1135V41.6412H69.8023V44.8999H73.3702V46.3033H69.8023Z" fill="white"/>
<path d="M63.0348 42.45C62.7018 42.45 62.4164 42.331 62.1785 42.0932C61.9406 41.8553 61.8217 41.5619 61.8217 41.2131C61.8217 40.8642 61.9406 40.5788 62.1785 40.3568C62.4164 40.1189 62.7018 40 63.0348 40C63.3678 40 63.6532 40.1189 63.8911 40.3568C64.1289 40.5788 64.2479 40.8642 64.2479 41.2131C64.2479 41.5619 64.1289 41.8553 63.8911 42.0932C63.6532 42.331 63.3678 42.45 63.0348 42.45ZM63.8673 44.8999V57.887H62.2023V44.8999H63.8673Z" fill="white"/>
<path d="M58.4323 40.2854V57.887H56.7673V40.2854H58.4323Z" fill="white"/>
<path d="M52.1648 42.45C51.8318 42.45 51.5464 42.331 51.3085 42.0932C51.0707 41.8553 50.9517 41.5619 50.9517 41.2131C50.9517 40.8642 51.0707 40.5788 51.3085 40.3568C51.5464 40.1189 51.8318 40 52.1648 40C52.4978 40 52.7832 40.1189 53.0211 40.3568C53.259 40.5788 53.3779 40.8642 53.3779 41.2131C53.3779 41.5619 53.259 41.8553 53.0211 42.0932C52.7832 42.331 52.4978 42.45 52.1648 42.45ZM52.9973 44.8999V57.887H51.3323V44.8999H52.9973Z" fill="white"/>
<path d="M36.9234 47.778C37.3515 46.8741 38.0096 46.1368 38.8976 45.5659C39.8015 44.995 40.8639 44.7096 42.0849 44.7096C43.2742 44.7096 44.3367 44.9871 45.2723 45.5421C46.2078 46.0813 46.9373 46.8583 47.4606 47.8731C47.9997 48.8722 48.2693 50.0377 48.2693 51.3697C48.2693 52.7017 47.9997 53.8751 47.4606 54.89C46.9373 55.9049 46.1999 56.6898 45.2485 57.2448C44.3129 57.7998 43.2584 58.0773 42.0849 58.0773C40.8481 58.0773 39.7777 57.7998 38.8738 57.2448C37.9858 56.6739 37.3357 55.9366 36.9234 55.0327V57.887H35.2822V40.2854H36.9234V47.778ZM46.5805 51.3697C46.5805 50.2914 46.3664 49.3637 45.9383 48.5867C45.526 47.7939 44.9551 47.1913 44.2257 46.779C43.4962 46.3667 42.6717 46.1606 41.7519 46.1606C40.8639 46.1606 40.0473 46.3746 39.302 46.8028C38.5726 47.2309 37.9938 47.8414 37.5656 48.6343C37.1375 49.4272 36.9234 50.3469 36.9234 51.3935C36.9234 52.44 37.1375 53.3598 37.5656 54.1526C37.9938 54.9455 38.5726 55.556 39.302 55.9841C40.0473 56.4123 40.8639 56.6264 41.7519 56.6264C42.6717 56.6264 43.4962 56.4202 44.2257 56.0079C44.9551 55.5798 45.526 54.9693 45.9383 54.1764C46.3664 53.3677 46.5805 52.4321 46.5805 51.3697Z" fill="white"/>
<path d="M25.7066 58.0773C24.4856 58.0773 23.3835 57.8077 22.4004 57.2686C21.4331 56.7136 20.664 55.9366 20.0931 54.9376C19.5381 53.9227 19.2606 52.7413 19.2606 51.3935C19.2606 50.0456 19.5461 48.8721 20.1169 47.8731C20.6878 46.8583 21.4648 46.0813 22.4479 45.5421C23.4311 44.9871 24.5332 44.7096 25.7542 44.7096C26.9752 44.7096 28.0773 44.9871 29.0604 45.5421C30.0594 46.0813 30.8364 46.8583 31.3914 47.8731C31.9623 48.8721 32.2477 50.0456 32.2477 51.3935C32.2477 52.7255 31.9623 53.8989 31.3914 54.9138C30.8206 55.9286 30.0356 56.7136 29.0366 57.2686C28.0376 57.8077 26.9276 58.0773 25.7066 58.0773ZM25.7066 56.6264C26.5629 56.6264 27.3558 56.4361 28.0852 56.0555C28.8146 55.6591 29.4014 55.0723 29.8454 54.2953C30.3052 53.5025 30.5351 52.5352 30.5351 51.3935C30.5351 50.2517 30.3131 49.2924 29.8691 48.5154C29.4251 47.7225 28.8384 47.1358 28.109 46.7552C27.3795 46.3588 26.5867 46.1606 25.7304 46.1606C24.8741 46.1606 24.0812 46.3588 23.3518 46.7552C22.6224 47.1358 22.0356 47.7225 21.5916 48.5154C21.1635 49.2924 20.9494 50.2517 20.9494 51.3935C20.9494 52.5352 21.1635 53.5025 21.5916 54.2953C22.0356 55.0723 22.6144 55.6591 23.328 56.0555C24.0574 56.4361 24.8503 56.6264 25.7066 56.6264Z" fill="white"/>
<path d="M16.2458 41.4747V57.887H14.5808V44.781L8.72944 57.887H7.51635L1.66501 44.8285V57.887H0V41.4747H1.76016L8.111 55.6987L14.4618 41.4747H16.2458Z" fill="white"/>
</svg>
