<svg width="1920" height="108" viewBox="0 0 1920 108" fill="none" xmlns="http://www.w3.org/2000/svg">
<rect opacity="0.2" x="678.117" y="53.5" width="200" height="1" fill="#CCDFF1"/>
<g opacity="0.68">
<path d="M916.772 34.8837H907.371L902.088 49.8184H911.489C918.974 49.8184 920.617 46.262 922 42.3511C923.384 38.4401 924.26 34.8837 916.772 34.8837ZM915.315 42.3511C913.888 46.39 913.351 47.015 910.843 47.015H909.554L912.855 37.6872H914.143C916.652 37.6872 916.743 38.3159 915.315 42.3511ZM934.556 34.5913C927.94 34.5913 924.906 36.7661 922.931 42.3511C920.956 47.9361 922.449 50.1109 929.065 50.1109C935.681 50.1109 938.714 47.9361 940.69 42.3511C942.665 36.7661 941.172 34.5913 934.556 34.5913ZM934.005 42.3511C932.577 46.39 931.982 47.4755 930 47.4755C928.017 47.4755 928.192 46.39 929.62 42.3511C931.047 38.3159 931.643 37.2266 933.625 37.2266C935.607 37.2266 935.436 38.3122 934.005 42.3511ZM953.282 34.5913C946.666 34.5913 943.632 36.7661 941.657 42.3511C939.682 47.9361 941.175 50.1109 947.791 50.1109C954.406 50.1109 957.44 47.9361 959.416 42.3511C961.391 36.7661 959.897 34.5913 953.282 34.5913ZM952.731 42.3511C951.303 46.39 950.708 47.4755 948.725 47.4755C946.743 47.4755 946.915 46.39 948.346 42.3511C949.773 38.3159 950.368 37.2266 952.351 37.2266C954.333 37.2266 954.158 38.3122 952.731 42.3511ZM975.94 45.5091C977.871 40.052 966.776 41.4921 967.82 38.5425C968.057 37.8736 968.912 37.2266 970.306 37.2266C971.559 37.2266 971.891 37.9577 971.581 38.8385L971.456 39.1967H977.517C978.649 35.9949 976.743 34.595 971.099 34.595C965.454 34.595 962.365 36.2471 961.303 39.2589C959.43 44.5515 970.117 43.0858 969.072 46.0354C968.784 46.8505 967.794 47.4792 966.473 47.4792C965.221 47.4792 964.512 47.0186 964.961 45.743L965.085 45.3885H958.817L958.634 45.9111C957.539 49.007 960.142 50.1145 965.505 50.1145C971.215 50.1145 974.819 48.6927 975.943 45.5127L975.94 45.5091ZM985.352 34.8837L974.008 49.8184H980.905L982.49 47.2051H987.645L987.382 49.8184H994.275L993.501 34.8837H985.356H985.352ZM987.915 44.2737H984.293L988.309 37.9357H988.379L987.911 44.2737H987.915ZM1011.85 34.8837L1008.59 44.0873H1008.52L1007.6 34.8837H1000.36L995.075 49.8184H1001.14L1004.4 40.593H1004.47L1005.52 49.8184H1012.63L1017.91 34.8837H1011.85Z" fill="white"/>
<path d="M1026.47 60.896C1027.47 60.896 1028.29 61.2089 1028.93 61.8348C1029.56 62.4505 1029.88 63.3483 1029.88 64.5282V69.4533H1028.82V64.6514C1028.82 63.7382 1028.59 63.0405 1028.13 62.5582C1027.68 62.076 1027.06 61.8348 1026.27 61.8348C1025.45 61.8348 1024.81 62.0914 1024.33 62.6044C1023.84 63.1174 1023.6 63.8716 1023.6 64.8668V69.4533H1022.53V61.0499H1023.6V62.4813C1023.87 61.9682 1024.25 61.5783 1024.76 61.3116C1025.26 61.0345 1025.83 60.896 1026.47 60.896Z" fill="white"/>
<path d="M1016.33 69.5763C1015.54 69.5763 1014.83 69.4019 1014.19 69.053C1013.56 68.6939 1013.07 68.1911 1012.7 67.5447C1012.34 66.888 1012.16 66.1236 1012.16 65.2515C1012.16 64.3793 1012.34 63.62 1012.71 62.9736C1013.08 62.3169 1013.59 61.8142 1014.22 61.4653C1014.86 61.1062 1015.57 60.9266 1016.36 60.9266C1017.15 60.9266 1017.86 61.1062 1018.5 61.4653C1019.15 61.8142 1019.65 62.3169 1020.01 62.9736C1020.38 63.62 1020.56 64.3793 1020.56 65.2515C1020.56 66.1134 1020.38 66.8727 1020.01 67.5293C1019.64 68.186 1019.13 68.6939 1018.48 69.053C1017.84 69.4019 1017.12 69.5763 1016.33 69.5763ZM1016.33 68.6375C1016.88 68.6375 1017.4 68.5143 1017.87 68.2681C1018.34 68.0116 1018.72 67.6319 1019.01 67.1292C1019.31 66.6161 1019.45 65.9902 1019.45 65.2515C1019.45 64.5127 1019.31 63.8919 1019.02 63.3892C1018.74 62.8761 1018.36 62.4965 1017.88 62.2503C1017.41 61.9937 1016.9 61.8655 1016.35 61.8655C1015.79 61.8655 1015.28 61.9937 1014.81 62.2503C1014.33 62.4965 1013.95 62.8761 1013.67 63.3892C1013.39 63.8919 1013.25 64.5127 1013.25 65.2515C1013.25 65.9902 1013.39 66.6161 1013.67 67.1292C1013.95 67.6319 1014.33 68.0116 1014.79 68.2681C1015.26 68.5143 1015.78 68.6375 1016.33 68.6375Z" fill="white"/>
<path d="M1009.67 59.4645C1009.46 59.4645 1009.27 59.3876 1009.12 59.2337C1008.97 59.0798 1008.89 58.8899 1008.89 58.6642C1008.89 58.4385 1008.97 58.2538 1009.12 58.1101C1009.27 57.9562 1009.46 57.8793 1009.67 57.8793C1009.89 57.8793 1010.07 57.9562 1010.23 58.1101C1010.38 58.2538 1010.46 58.4385 1010.46 58.6642C1010.46 58.8899 1010.38 59.0798 1010.23 59.2337C1010.07 59.3876 1009.89 59.4645 1009.67 59.4645ZM1010.21 61.0498V69.4532H1009.14V61.0498H1010.21Z" fill="white"/>
<path d="M1005.05 61.9578V67.1753C1005.05 67.6883 1005.15 68.0423 1005.34 68.2373C1005.54 68.4322 1005.88 68.5297 1006.37 68.5297H1007.36V69.4531H1006.2C1005.45 69.4531 1004.88 69.2787 1004.51 68.9299C1004.14 68.5707 1003.96 67.9859 1003.96 67.1753V61.9578H1002.79V61.0497H1003.96V58.9412H1005.05V61.0497H1007.36V61.9578H1005.05Z" fill="white"/>
<path d="M992.771 65.2361C992.771 64.3742 992.941 63.62 993.279 62.9736C993.628 62.3169 994.105 61.8142 994.711 61.4653C995.326 61.1062 996.019 60.9266 996.789 60.9266C997.589 60.9266 998.276 61.1113 998.851 61.4807C999.436 61.8501 999.856 62.3221 1000.11 62.8967V61.0498H1001.19V69.4532H1000.11V67.5909C999.846 68.1655 999.42 68.6426 998.836 69.0222C998.261 69.3916 997.573 69.5763 996.773 69.5763C996.014 69.5763 995.326 69.3968 994.711 69.0376C994.105 68.6785 993.628 68.1706 993.279 67.5139C992.941 66.8573 992.771 66.098 992.771 65.2361ZM1000.11 65.2515C1000.11 64.5743 999.974 63.9792 999.697 63.4661C999.42 62.9531 999.041 62.5581 998.558 62.281C998.086 62.004 997.563 61.8655 996.989 61.8655C996.393 61.8655 995.86 61.9989 995.388 62.2656C994.916 62.5324 994.541 62.9223 994.264 63.4354C993.998 63.9381 993.864 64.5384 993.864 65.2361C993.864 65.9235 993.998 66.5289 994.264 67.0522C994.541 67.5652 994.916 67.9603 995.388 68.2373C995.86 68.5041 996.393 68.6375 996.989 68.6375C997.563 68.6375 998.086 68.499 998.558 68.2219C999.041 67.9449 999.42 67.5499 999.697 67.0368C999.974 66.5238 1000.11 65.9287 1000.11 65.2515Z" fill="white"/>
<path d="M987.834 68.4067L990.666 61.0498H991.805L988.434 69.4532H987.218L983.848 61.0498H985.002L987.834 68.4067Z" fill="white"/>
<path d="M978.651 69.5763C977.861 69.5763 977.148 69.4019 976.512 69.053C975.886 68.6939 975.389 68.1911 975.019 67.5447C974.66 66.888 974.48 66.1236 974.48 65.2515C974.48 64.3793 974.665 63.62 975.035 62.9736C975.404 62.3169 975.907 61.8142 976.543 61.4653C977.179 61.1062 977.892 60.9266 978.682 60.9266C979.472 60.9266 980.185 61.1062 980.822 61.4653C981.468 61.8142 981.971 62.3169 982.33 62.9736C982.699 63.62 982.884 64.3793 982.884 65.2515C982.884 66.1134 982.699 66.8727 982.33 67.5293C981.96 68.186 981.453 68.6939 980.806 69.053C980.16 69.4019 979.441 69.5763 978.651 69.5763ZM978.651 68.6375C979.205 68.6375 979.719 68.5143 980.19 68.2681C980.662 68.0116 981.042 67.6319 981.329 67.1292C981.627 66.6161 981.776 65.9902 981.776 65.2515C981.776 64.5127 981.632 63.8919 981.345 63.3892C981.058 62.8761 980.678 62.4965 980.206 62.2503C979.734 61.9937 979.221 61.8655 978.667 61.8655C978.113 61.8655 977.6 61.9937 977.128 62.2503C976.656 62.4965 976.276 62.8761 975.989 63.3892C975.712 63.8919 975.573 64.5127 975.573 65.2515C975.573 65.9902 975.712 66.6161 975.989 67.1292C976.276 67.6319 976.651 68.0116 977.112 68.2681C977.584 68.5143 978.097 68.6375 978.651 68.6375Z" fill="white"/>
<path d="M969.174 60.896C970.18 60.896 971.001 61.2089 971.637 61.8348C972.273 62.4505 972.591 63.3483 972.591 64.5282V69.4533H971.529V64.6514C971.529 63.7382 971.298 63.0405 970.837 62.5582C970.385 62.076 969.764 61.8348 968.974 61.8348C968.164 61.8348 967.517 62.0914 967.035 62.6044C966.553 63.1174 966.312 63.8716 966.312 64.8668V69.4533H965.234V61.0499H966.312V62.4813C966.579 61.9682 966.963 61.5783 967.466 61.3116C967.969 61.0345 968.538 60.896 969.174 60.896Z" fill="white"/>
<path d="M959.436 60.896C960.442 60.896 961.263 61.2089 961.899 61.8348C962.535 62.4505 962.853 63.3483 962.853 64.5282V69.4533H961.791V64.6514C961.791 63.7382 961.56 63.0405 961.098 62.5582C960.647 62.076 960.026 61.8348 959.236 61.8348C958.425 61.8348 957.779 62.0914 957.297 62.6044C956.815 63.1174 956.573 63.8716 956.573 64.8668V69.4533H955.496V61.0499H956.573V62.4813C956.84 61.9682 957.225 61.5783 957.728 61.3116C958.231 61.0345 958.8 60.896 959.436 60.896Z" fill="white"/>
<path d="M953.056 58.6951V69.4533H951.979V58.6951H953.056Z" fill="white"/>
<path d="M946.295 61.0498L941.309 73.4087H940.185L941.817 69.4071L938.369 61.0498H939.554L942.417 68.222L945.187 61.0498H946.295Z" fill="white"/>
<path d="M935.284 61.9578V67.1753C935.284 67.6883 935.381 68.0423 935.576 68.2373C935.771 68.4322 936.115 68.5297 936.608 68.5297H937.593V69.4531H936.438C935.679 69.4531 935.115 69.2787 934.745 68.9299C934.376 68.5707 934.191 67.9859 934.191 67.1753V61.9578H933.021V61.0497H934.191V58.9412H935.284V61.0497H937.593V61.9578H935.284Z" fill="white"/>
<path d="M930.905 59.4645C930.69 59.4645 930.505 59.3876 930.351 59.2337C930.197 59.0798 930.12 58.8899 930.12 58.6642C930.12 58.4385 930.197 58.2538 930.351 58.1101C930.505 57.9562 930.69 57.8793 930.905 57.8793C931.121 57.8793 931.305 57.9562 931.459 58.1101C931.613 58.2538 931.69 58.4385 931.69 58.6642C931.69 58.8899 931.613 59.0798 931.459 59.2337C931.305 59.3876 931.121 59.4645 930.905 59.4645ZM931.444 61.0498V69.4532H930.366V61.0498H931.444Z" fill="white"/>
<path d="M927.927 58.064V69.4532H926.85V58.064H927.927Z" fill="white"/>
<path d="M923.872 59.4645C923.656 59.4645 923.472 59.3876 923.318 59.2337C923.164 59.0798 923.087 58.8899 923.087 58.6642C923.087 58.4385 923.164 58.2538 923.318 58.1101C923.472 57.9562 923.656 57.8793 923.872 57.8793C924.087 57.8793 924.272 57.9562 924.426 58.1101C924.58 58.2538 924.657 58.4385 924.657 58.6642C924.657 58.8899 924.58 59.0798 924.426 59.2337C924.272 59.3876 924.087 59.4645 923.872 59.4645ZM924.411 61.0498V69.4532H923.333V61.0498H924.411Z" fill="white"/>
<path d="M914.01 62.9121C914.287 62.3272 914.713 61.8501 915.288 61.4807C915.873 61.1114 916.56 60.9267 917.35 60.9267C918.12 60.9267 918.807 61.1062 919.412 61.4654C920.018 61.8142 920.49 62.317 920.828 62.9737C921.177 63.6201 921.352 64.3742 921.352 65.2361C921.352 66.098 921.177 66.8573 920.828 67.514C920.49 68.1707 920.013 68.6786 919.397 69.0377C918.792 69.3968 918.109 69.5764 917.35 69.5764C916.55 69.5764 915.857 69.3968 915.272 69.0377C914.698 68.6683 914.277 68.1912 914.01 67.6063V69.4532H912.948V58.064H914.01V62.9121ZM920.259 65.2361C920.259 64.5384 920.12 63.9382 919.843 63.4354C919.577 62.9224 919.207 62.5325 918.735 62.2657C918.263 61.9989 917.73 61.8655 917.135 61.8655C916.56 61.8655 916.032 62.004 915.549 62.2811C915.077 62.5581 914.703 62.9531 914.426 63.4662C914.149 63.9792 914.01 64.5743 914.01 65.2515C914.01 65.9287 914.149 66.5238 914.426 67.0369C914.703 67.5499 915.077 67.9449 915.549 68.222C916.032 68.499 916.56 68.6375 917.135 68.6375C917.73 68.6375 918.263 68.5041 918.735 68.2373C919.207 67.9603 919.577 67.5653 919.843 67.0522C920.12 66.529 920.259 65.9236 920.259 65.2361Z" fill="white"/>
<path d="M906.752 69.5763C905.962 69.5763 905.249 69.4019 904.613 69.053C903.987 68.6939 903.489 68.1911 903.12 67.5447C902.761 66.888 902.581 66.1236 902.581 65.2515C902.581 64.3793 902.766 63.62 903.135 62.9736C903.505 62.3169 904.007 61.8142 904.643 61.4653C905.28 61.1062 905.993 60.9266 906.783 60.9266C907.573 60.9266 908.286 61.1062 908.922 61.4653C909.569 61.8142 910.071 62.3169 910.43 62.9736C910.8 63.62 910.984 64.3793 910.984 65.2515C910.984 66.1134 910.8 66.8727 910.43 67.5293C910.061 68.186 909.553 68.6939 908.907 69.053C908.26 69.4019 907.542 69.5763 906.752 69.5763ZM906.752 68.6375C907.306 68.6375 907.819 68.5143 908.291 68.2681C908.763 68.0116 909.143 67.6319 909.43 67.1292C909.728 66.6161 909.876 65.9902 909.876 65.2515C909.876 64.5127 909.733 63.8919 909.445 63.3892C909.158 62.8761 908.778 62.4965 908.306 62.2503C907.834 61.9937 907.321 61.8655 906.767 61.8655C906.213 61.8655 905.7 61.9937 905.228 62.2503C904.756 62.4965 904.377 62.8761 904.089 63.3892C903.812 63.8919 903.674 64.5127 903.674 65.2515C903.674 65.9902 903.812 66.6161 904.089 67.1292C904.377 67.6319 904.751 68.0116 905.213 68.2681C905.685 68.5143 906.198 68.6375 906.752 68.6375Z" fill="white"/>
<path d="M900.629 58.8335V69.4532H899.552V60.9728L895.766 69.4532H894.981L891.195 61.0036V69.4532H890.117V58.8335H891.256L895.365 68.0373L899.475 58.8335H900.629Z" fill="white"/>
</g>
<rect opacity="0.2" x="1041.88" y="53.5" width="200" height="1" fill="#CCDFF1"/>
</svg>
