<svg width="1920" height="108" viewBox="0 0 1920 108" fill="none" xmlns="http://www.w3.org/2000/svg">
<rect opacity="0.2" x="582" y="53.5" width="200" height="1" fill="#CCDFF1"/>
<path opacity="0.4" d="M802.969 52.25C802.641 50.6875 801.305 49.8438 799.812 49.8438C797.766 49.8438 796.18 51.4219 796.172 54.3438C796.18 57.2578 797.766 58.8359 799.812 58.8438C801.305 58.8359 802.633 58 802.969 56.4531H804.375C803.969 58.7656 802.109 60.1562 799.812 60.1562C796.906 60.1562 794.805 57.9219 794.812 54.3438C794.805 50.7656 796.906 48.5312 799.812 48.5312C802.102 48.5312 803.953 49.8984 804.375 52.25H802.969ZM807.516 48.6875V60H806.172V48.6875H807.516ZM809.656 60V51.5156H811V60H809.656ZM809.391 49.2188C809.383 48.7188 809.812 48.3203 810.328 48.3281C810.844 48.3203 811.273 48.7188 811.281 49.2188C811.273 49.7109 810.844 50.1094 810.328 50.1094C809.812 50.1094 809.383 49.7109 809.391 49.2188ZM816.609 60.1719C814.203 60.1797 812.734 58.3438 812.734 55.7969C812.734 53.2188 814.273 51.4062 816.578 51.4062C818.383 51.4062 819.742 52.4766 819.953 54.0781H818.609C818.414 53.3047 817.742 52.5938 816.609 52.5938C815.094 52.5938 814.086 53.8438 814.078 55.75C814.086 57.7109 815.07 58.9688 816.609 58.9688C817.609 58.9688 818.375 58.4297 818.609 57.5H819.953C819.742 59.0156 818.492 60.1797 816.609 60.1719ZM821.609 60V48.6875H822.953V55.2656H823.109L826.781 51.5156H828.438L824.859 55.1484L828.703 60H827L823.852 56L822.953 56.8359V60H821.609ZM833.484 57.5938C833.484 55.6484 835.203 55.2031 836.672 55.0938C837.219 55.0547 838.586 54.9766 838.969 54.9688V54.2812C838.969 53.2031 838.328 52.5781 837.047 52.5781C835.977 52.5781 835.328 53.0703 835.141 53.7188H833.734C833.906 52.3516 835.234 51.4062 837.109 51.4062C838.219 51.4062 840.305 51.7344 840.297 54.4062V60H838.969V58.8438H838.906C838.625 59.4141 837.852 60.1953 836.375 60.2031C834.766 60.1953 833.484 59.25 833.484 57.5938ZM834.828 57.6562C834.836 58.5547 835.578 59.0078 836.609 59C838.125 59.0078 838.969 57.9922 838.969 56.9219V56.0703C838.57 56.0938 837.234 56.1953 836.828 56.2188C835.609 56.2969 834.836 56.7266 834.828 57.6562ZM846.469 63.1875V51.5156H847.766V52.8594H847.922C848.211 52.4062 848.727 51.4062 850.375 51.4062C852.508 51.4062 853.984 53.0938 853.984 55.7812C853.984 58.4766 852.508 60.1797 850.391 60.1719C848.773 60.1797 848.211 59.1719 847.922 58.7031H847.812V63.1875H846.469ZM847.781 55.75C847.789 57.6562 848.641 58.9688 850.203 58.9688C851.812 58.9688 852.641 57.5547 852.641 55.75C852.641 53.9766 851.836 52.6094 850.203 52.6094C848.617 52.6094 847.789 53.8672 847.781 55.75ZM855.734 60V51.5156H857.031V52.8125H857.125C857.43 51.9531 858.312 51.3828 859.312 51.375C859.516 51.3828 859.859 51.3906 860.016 51.4062V52.7656C859.914 52.7422 859.555 52.6719 859.203 52.6719C857.984 52.6719 857.078 53.5156 857.078 54.6562V60H855.734ZM864.516 60.1719C862.203 60.1797 860.641 58.4297 860.641 55.7969C860.641 53.1484 862.203 51.4062 864.516 51.4062C866.82 51.4062 868.367 53.1484 868.359 55.7969C868.367 58.4297 866.82 60.1797 864.516 60.1719ZM861.984 55.7969C861.992 57.4922 862.789 58.9844 864.516 58.9844C866.227 58.9844 867.016 57.4922 867.016 55.7969C867.016 54.1094 866.227 52.5938 864.516 52.5938C862.789 52.5938 861.992 54.1094 861.984 55.7969ZM873.328 60.1719C871.211 60.1797 869.719 58.4766 869.719 55.7812C869.719 53.0938 871.211 51.4062 873.344 51.4062C874.992 51.4062 875.508 52.4062 875.797 52.8594H875.891V48.6875H877.25V60H875.938V58.7031H875.797C875.5 59.1719 874.945 60.1797 873.328 60.1719ZM871.078 55.75C871.078 57.5547 871.906 58.9688 873.516 58.9688C875.07 58.9688 875.93 57.6562 875.938 55.75C875.93 53.8672 875.094 52.6094 873.516 52.6094C871.883 52.6094 871.078 53.9766 871.078 55.75ZM884.938 56.5156V51.5156H886.266V60H884.938V58.5625H884.844C884.445 59.4219 883.602 60.1094 882.328 60.1094C880.719 60.1094 879.57 59.0625 879.578 56.9062V51.5156H880.922V56.8125C880.922 58.0312 881.68 58.8203 882.766 58.8125C883.727 58.8203 884.93 58.1016 884.938 56.5156ZM891.891 60.1719C889.484 60.1797 888.016 58.3438 888.016 55.7969C888.016 53.2188 889.555 51.4062 891.859 51.4062C893.664 51.4062 895.023 52.4766 895.234 54.0781H893.891C893.695 53.3047 893.023 52.5938 891.891 52.5938C890.375 52.5938 889.367 53.8438 889.359 55.75C889.367 57.7109 890.352 58.9688 891.891 58.9688C892.891 58.9688 893.656 58.4297 893.891 57.5H895.234C895.023 59.0156 893.773 60.1797 891.891 60.1719ZM900.594 51.5156V52.6406H898.812V57.5625C898.805 58.6484 899.352 58.8281 899.922 58.8281C900.164 58.8281 900.523 58.8047 900.719 58.7969V60.0469C900.508 60.0781 900.18 60.1094 899.781 60.1094C898.648 60.1094 897.461 59.4062 897.453 57.9062V52.6406H896.172V51.5156H897.453V49.4844H898.812V51.5156H900.594ZM910.047 51.5156V52.6406H908.266V57.5625C908.258 58.6484 908.805 58.8281 909.375 58.8281C909.617 58.8281 909.977 58.8047 910.172 58.7969V60.0469C909.961 60.0781 909.633 60.1094 909.234 60.1094C908.102 60.1094 906.914 59.4062 906.906 57.9062V52.6406H905.625V51.5156H906.906V49.4844H908.266V51.5156H910.047ZM915.156 60.1719C912.844 60.1797 911.281 58.4297 911.281 55.7969C911.281 53.1484 912.844 51.4062 915.156 51.4062C917.461 51.4062 919.008 53.1484 919 55.7969C919.008 58.4297 917.461 60.1797 915.156 60.1719ZM912.625 55.7969C912.633 57.4922 913.43 58.9844 915.156 58.9844C916.867 58.9844 917.656 57.4922 917.656 55.7969C917.656 54.1094 916.867 52.5938 915.156 52.5938C913.43 52.5938 912.633 54.1094 912.625 55.7969ZM931.766 51.5156L928.625 60H927.234L924.109 51.5156H925.578L927.891 58.25H927.984L930.297 51.5156H931.766ZM933.25 60V51.5156H934.594V60H933.25ZM932.984 49.2188C932.977 48.7188 933.406 48.3203 933.922 48.3281C934.438 48.3203 934.867 48.7188 934.875 49.2188C934.867 49.7109 934.438 50.1094 933.922 50.1094C933.406 50.1094 932.977 49.7109 932.984 49.2188ZM940.297 60.1719C937.844 60.1797 936.328 58.4297 936.328 55.8281C936.328 53.2188 937.867 51.4062 940.172 51.4062C941.953 51.4062 943.836 52.5 943.828 55.6406V56.2031H937.672C937.742 58 938.789 58.9844 940.297 58.9844C941.312 58.9844 941.953 58.5391 942.266 58.0156H943.703C943.305 59.3047 942.047 60.1797 940.297 60.1719ZM937.68 55.0625H942.469C942.461 53.6484 941.57 52.5938 940.172 52.5938C938.703 52.5938 937.773 53.75 937.68 55.0625ZM947.484 60L944.906 51.5156H946.328L948.141 57.9844H948.219L950.016 51.5156H951.453L953.219 57.9531H953.312L955.125 51.5156H956.531L953.953 60H952.625L950.781 53.5312H950.656L948.828 60H947.484ZM965.234 60.1719C963.117 60.1797 961.625 58.4766 961.625 55.7812C961.625 53.0938 963.117 51.4062 965.25 51.4062C966.898 51.4062 967.414 52.4062 967.703 52.8594H967.797V48.6875H969.156V60H967.844V58.7031H967.703C967.406 59.1719 966.852 60.1797 965.234 60.1719ZM962.984 55.75C962.984 57.5547 963.812 58.9688 965.422 58.9688C966.977 58.9688 967.836 57.6562 967.844 55.75C967.836 53.8672 967 52.6094 965.422 52.6094C963.789 52.6094 962.984 53.9766 962.984 55.75ZM975.047 60.1719C972.594 60.1797 971.078 58.4297 971.078 55.8281C971.078 53.2188 972.617 51.4062 974.922 51.4062C976.703 51.4062 978.586 52.5 978.578 55.6406V56.2031H972.422C972.492 58 973.539 58.9844 975.047 58.9844C976.062 58.9844 976.703 58.5391 977.016 58.0156H978.453C978.055 59.3047 976.797 60.1797 975.047 60.1719ZM972.43 55.0625H977.219C977.211 53.6484 976.32 52.5938 974.922 52.5938C973.453 52.5938 972.523 53.75 972.43 55.0625ZM984.031 51.5156V52.6406H982.25V57.5625C982.242 58.6484 982.789 58.8281 983.359 58.8281C983.602 58.8281 983.961 58.8047 984.156 58.7969V60.0469C983.945 60.0781 983.617 60.1094 983.219 60.1094C982.086 60.1094 980.898 59.4062 980.891 57.9062V52.6406H979.609V51.5156H980.891V49.4844H982.25V51.5156H984.031ZM985.359 57.5938C985.359 55.6484 987.078 55.2031 988.547 55.0938C989.094 55.0547 990.461 54.9766 990.844 54.9688V54.2812C990.844 53.2031 990.203 52.5781 988.922 52.5781C987.852 52.5781 987.203 53.0703 987.016 53.7188H985.609C985.781 52.3516 987.109 51.4062 988.984 51.4062C990.094 51.4062 992.18 51.7344 992.172 54.4062V60H990.844V58.8438H990.781C990.5 59.4141 989.727 60.1953 988.25 60.2031C986.641 60.1953 985.359 59.25 985.359 57.5938ZM986.703 57.6562C986.711 58.5547 987.453 59.0078 988.484 59C990 59.0078 990.844 57.9922 990.844 56.9219V56.0703C990.445 56.0938 989.109 56.1953 988.703 56.2188C987.484 56.2969 986.711 56.7266 986.703 57.6562ZM994.328 60V51.5156H995.672V60H994.328ZM994.062 49.2188C994.055 48.7188 994.484 48.3203 995 48.3281C995.516 48.3203 995.945 48.7188 995.953 49.2188C995.945 49.7109 995.516 50.1094 995 50.1094C994.484 50.1094 994.055 49.7109 994.062 49.2188ZM999.156 48.6875V60H997.812V48.6875H999.156ZM1004.86 60.1719C1002.41 60.1797 1000.89 58.4297 1000.89 55.8281C1000.89 53.2188 1002.43 51.4062 1004.73 51.4062C1006.52 51.4062 1008.4 52.5 1008.39 55.6406V56.2031H1002.23C1002.3 58 1003.35 58.9844 1004.86 58.9844C1005.88 58.9844 1006.52 58.5391 1006.83 58.0156H1008.27C1007.87 59.3047 1006.61 60.1797 1004.86 60.1719ZM1002.24 55.0625H1007.03C1007.02 53.6484 1006.13 52.5938 1004.73 52.5938C1003.27 52.5938 1002.34 53.75 1002.24 55.0625ZM1013.34 60.1719C1011.23 60.1797 1009.73 58.4766 1009.73 55.7812C1009.73 53.0938 1011.23 51.4062 1013.36 51.4062C1015.01 51.4062 1015.52 52.4062 1015.81 52.8594H1015.91V48.6875H1017.27V60H1015.95V58.7031H1015.81C1015.52 59.1719 1014.96 60.1797 1013.34 60.1719ZM1011.09 55.75C1011.09 57.5547 1011.92 58.9688 1013.53 58.9688C1015.09 58.9688 1015.95 57.6562 1015.95 55.75C1015.95 53.8672 1015.11 52.6094 1013.53 52.6094C1011.9 52.6094 1011.09 53.9766 1011.09 55.75ZM1028.33 53.7188C1028.14 53.0156 1027.6 52.5547 1026.61 52.5469C1025.56 52.5547 1024.82 53.1172 1024.81 53.8281C1024.82 54.3906 1025.27 54.7734 1026.27 55.0156L1027.53 55.3281C1029.05 55.6875 1029.79 56.4453 1029.8 57.625C1029.79 59.0938 1028.59 60.1797 1026.47 60.1719C1024.56 60.1797 1023.43 59.3281 1023.2 57.7812H1024.61C1024.77 58.6094 1025.37 59.0078 1026.44 59C1027.65 59.0078 1028.41 58.5 1028.41 57.7031C1028.41 57.1016 1027.98 56.7109 1027.02 56.4844L1025.73 56.1875C1024.26 55.8438 1023.47 55.0391 1023.47 53.9062C1023.47 52.4531 1024.74 51.4062 1026.61 51.4062C1028.37 51.4062 1029.47 52.3438 1029.64 53.7188H1028.33ZM1031.55 63.1875V51.5156H1032.84V52.8594H1033C1033.29 52.4062 1033.8 51.4062 1035.45 51.4062C1037.59 51.4062 1039.06 53.0938 1039.06 55.7812C1039.06 58.4766 1037.59 60.1797 1035.47 60.1719C1033.85 60.1797 1033.29 59.1719 1033 58.7031H1032.89V63.1875H1031.55ZM1032.86 55.75C1032.87 57.6562 1033.72 58.9688 1035.28 58.9688C1036.89 58.9688 1037.72 57.5547 1037.72 55.75C1037.72 53.9766 1036.91 52.6094 1035.28 52.6094C1033.7 52.6094 1032.87 53.8672 1032.86 55.75ZM1044.38 60.1719C1041.92 60.1797 1040.41 58.4297 1040.41 55.8281C1040.41 53.2188 1041.95 51.4062 1044.25 51.4062C1046.03 51.4062 1047.91 52.5 1047.91 55.6406V56.2031H1041.75C1041.82 58 1042.87 58.9844 1044.38 58.9844C1045.39 58.9844 1046.03 58.5391 1046.34 58.0156H1047.78C1047.38 59.3047 1046.12 60.1797 1044.38 60.1719ZM1041.76 55.0625H1046.55C1046.54 53.6484 1045.65 52.5938 1044.25 52.5938C1042.78 52.5938 1041.85 53.75 1041.76 55.0625ZM1053.12 60.1719C1050.72 60.1797 1049.25 58.3438 1049.25 55.7969C1049.25 53.2188 1050.79 51.4062 1053.09 51.4062C1054.9 51.4062 1056.26 52.4766 1056.47 54.0781H1055.12C1054.93 53.3047 1054.26 52.5938 1053.12 52.5938C1051.61 52.5938 1050.6 53.8438 1050.59 55.75C1050.6 57.7109 1051.59 58.9688 1053.12 58.9688C1054.12 58.9688 1054.89 58.4297 1055.12 57.5H1056.47C1056.26 59.0156 1055.01 60.1797 1053.12 60.1719ZM1058.12 60V51.5156H1059.47V60H1058.12ZM1057.86 49.2188C1057.85 48.7188 1058.28 48.3203 1058.8 48.3281C1059.31 48.3203 1059.74 48.7188 1059.75 49.2188C1059.74 49.7109 1059.31 50.1094 1058.8 50.1094C1058.28 50.1094 1057.85 49.7109 1057.86 49.2188ZM1065.41 51.5156V52.6406H1063.53V60H1062.17V52.6406H1060.81V51.5156H1062.17V50.3594C1062.18 48.9844 1063.09 48.1562 1064.59 48.1562C1064.92 48.1562 1065.31 48.1953 1065.59 48.25V49.4531C1065.3 49.4062 1065.06 49.3906 1064.89 49.3906C1063.95 49.3906 1063.52 49.7812 1063.53 50.6562V51.5156H1065.41ZM1067 60V51.5156H1068.34V60H1067ZM1066.73 49.2188C1066.73 48.7188 1067.16 48.3203 1067.67 48.3281C1068.19 48.3203 1068.62 48.7188 1068.62 49.2188C1068.62 49.7109 1068.19 50.1094 1067.67 50.1094C1067.16 50.1094 1066.73 49.7109 1066.73 49.2188ZM1073.95 60.1719C1071.55 60.1797 1070.08 58.3438 1070.08 55.7969C1070.08 53.2188 1071.62 51.4062 1073.92 51.4062C1075.73 51.4062 1077.09 52.4766 1077.3 54.0781H1075.95C1075.76 53.3047 1075.09 52.5938 1073.95 52.5938C1072.44 52.5938 1071.43 53.8438 1071.42 55.75C1071.43 57.7109 1072.41 58.9688 1073.95 58.9688C1074.95 58.9688 1075.72 58.4297 1075.95 57.5H1077.3C1077.09 59.0156 1075.84 60.1797 1073.95 60.1719ZM1078.55 57.5938C1078.55 55.6484 1080.27 55.2031 1081.73 55.0938C1082.28 55.0547 1083.65 54.9766 1084.03 54.9688V54.2812C1084.03 53.2031 1083.39 52.5781 1082.11 52.5781C1081.04 52.5781 1080.39 53.0703 1080.2 53.7188H1078.8C1078.97 52.3516 1080.3 51.4062 1082.17 51.4062C1083.28 51.4062 1085.37 51.7344 1085.36 54.4062V60H1084.03V58.8438H1083.97C1083.69 59.4141 1082.91 60.1953 1081.44 60.2031C1079.83 60.1953 1078.55 59.25 1078.55 57.5938ZM1079.89 57.6562C1079.9 58.5547 1080.64 59.0078 1081.67 59C1083.19 59.0078 1084.03 57.9922 1084.03 56.9219V56.0703C1083.63 56.0938 1082.3 56.1953 1081.89 56.2188C1080.67 56.2969 1079.9 56.7266 1079.89 57.6562ZM1091.22 51.5156V52.6406H1089.44V57.5625C1089.43 58.6484 1089.98 58.8281 1090.55 58.8281C1090.79 58.8281 1091.15 58.8047 1091.34 58.7969V60.0469C1091.13 60.0781 1090.8 60.1094 1090.41 60.1094C1089.27 60.1094 1088.09 59.4062 1088.08 57.9062V52.6406H1086.8V51.5156H1088.08V49.4844H1089.44V51.5156H1091.22ZM1092.95 60V51.5156H1094.3V60H1092.95ZM1092.69 49.2188C1092.68 48.7188 1093.11 48.3203 1093.62 48.3281C1094.14 48.3203 1094.57 48.7188 1094.58 49.2188C1094.57 49.7109 1094.14 50.1094 1093.62 50.1094C1093.11 50.1094 1092.68 49.7109 1092.69 49.2188ZM1099.91 60.1719C1097.59 60.1797 1096.03 58.4297 1096.03 55.7969C1096.03 53.1484 1097.59 51.4062 1099.91 51.4062C1102.21 51.4062 1103.76 53.1484 1103.75 55.7969C1103.76 58.4297 1102.21 60.1797 1099.91 60.1719ZM1097.38 55.7969C1097.38 57.4922 1098.18 58.9844 1099.91 58.9844C1101.62 58.9844 1102.41 57.4922 1102.41 55.7969C1102.41 54.1094 1101.62 52.5938 1099.91 52.5938C1098.18 52.5938 1097.38 54.1094 1097.38 55.7969ZM1106.86 54.9062V60H1105.52V51.5156H1106.81V52.8438H1106.92C1107.32 51.9766 1108.12 51.4062 1109.41 51.4062C1111.12 51.4062 1112.27 52.4531 1112.27 54.6094V60H1110.92V54.7031C1110.92 53.3906 1110.2 52.6094 1109 52.6094C1107.77 52.6094 1106.86 53.4375 1106.86 54.9062ZM1119.14 53.7188C1118.95 53.0156 1118.41 52.5547 1117.42 52.5469C1116.38 52.5547 1115.63 53.1172 1115.62 53.8281C1115.63 54.3906 1116.09 54.7734 1117.08 55.0156L1118.34 55.3281C1119.86 55.6875 1120.6 56.4453 1120.61 57.625C1120.6 59.0938 1119.41 60.1797 1117.28 60.1719C1115.38 60.1797 1114.24 59.3281 1114.02 57.7812H1115.42C1115.58 58.6094 1116.18 59.0078 1117.25 59C1118.46 59.0078 1119.22 58.5 1119.22 57.7031C1119.22 57.1016 1118.79 56.7109 1117.83 56.4844L1116.55 56.1875C1115.07 55.8438 1114.28 55.0391 1114.28 53.9062C1114.28 52.4531 1115.55 51.4062 1117.42 51.4062C1119.18 51.4062 1120.28 52.3438 1120.45 53.7188H1119.14ZM1123.31 60.0938C1122.77 60.0859 1122.3 59.6328 1122.31 59.0781C1122.3 58.5312 1122.77 58.0781 1123.31 58.0781C1123.87 58.0781 1124.32 58.5312 1124.31 59.0781C1124.32 59.6328 1123.87 60.0859 1123.31 60.0938Z" fill="#CCDFF1"/>
<rect opacity="0.2" x="1138" y="53.5" width="200" height="1" fill="#CCDFF1"/>
</svg>
